<svg xmlns="http://www.w3.org/2000/svg" viewBox="0 0 400 300" fill="none">
  <!-- Category placeholder: PONY (small, round, short legs) -->
  <rect width="400" height="300" fill="#0f2346"/>
  <g fill="rgba(148,163,184,0.3)">
    <!-- Body (round, compact) -->
    <ellipse cx="205" cy="190" rx="78" ry="52"/>
    <!-- Neck (short, thick) -->
    <ellipse cx="160" cy="150" rx="26" ry="32" transform="rotate(-18 160 150)"/>
    <!-- Head (small) -->
    <ellipse cx="130" cy="122" rx="20" ry="15" transform="rotate(-30 130 122)"/>
    <!-- Muzzle -->
    <ellipse cx="114" cy="128" rx="12" ry="9" transform="rotate(-30 114 128)"/>
    <!-- Ear -->
    <polygon points="138,104 143,92 149,104"/>
    <!-- Legs (short, stubby) -->
    <rect x="158" y="234" width="14" height="36" rx="6"/>
    <rect x="180" y="234" width="14" height="36" rx="6"/>
    <rect x="222" y="234" width="14" height="34" rx="6"/>
    <rect x="244" y="234" width="14" height="34" rx="6"/>
    <!-- Tail -->
    <path d="M282,172 Q312,158 306,204 Q302,230 288,246" stroke="rgba(148,163,184,0.3)" stroke-width="13" stroke-linecap="round" fill="none"/>
  </g>
  <text x="200" y="292" text-anchor="middle" font-family="sans-serif" font-size="12" fill="rgba(148,163,184,0.4)">Pony breed — no portrait available</text>
</svg>
